<mxfile host="app.diagrams.net" modified="2023-05-08T16:26:57.996Z" agent="Mozilla/5.0 (Windows NT 10.0; Win64; x64) AppleWebKit/537.36 (KHTML, like Gecko) Chrome/113.0.0.0 Safari/537.36 Edg/113.0.1774.35" etag="Gq2OzXh5yfK5I9yNz21C" version="21.2.9" type="github" pages="2">
  <diagram name="第 1 页" id="dvPHrxvfBRx2vROlm0o1">
    <mxGraphModel dx="1206" dy="663" grid="0" gridSize="10" guides="1" tooltips="1" connect="1" arrows="1" fold="1" page="1" pageScale="1" pageWidth="827" pageHeight="1169" math="0" shadow="0">
      <root>
        <mxCell id="0" />
        <mxCell id="1" parent="0" />
        <mxCell id="yrAa5iLb8GdBAWONsoct-8" style="edgeStyle=orthogonalEdgeStyle;rounded=0;orthogonalLoop=1;jettySize=auto;html=1;exitX=1;exitY=0.5;exitDx=0;exitDy=0;entryX=0;entryY=0.5;entryDx=0;entryDy=0;curved=1;sketch=1;curveFitting=1;jiggle=2;" edge="1" parent="1" source="yrAa5iLb8GdBAWONsoct-1" target="yrAa5iLb8GdBAWONsoct-2">
          <mxGeometry relative="1" as="geometry" />
        </mxCell>
        <mxCell id="yrAa5iLb8GdBAWONsoct-9" style="edgeStyle=orthogonalEdgeStyle;rounded=0;orthogonalLoop=1;jettySize=auto;html=1;exitX=1;exitY=0.5;exitDx=0;exitDy=0;entryX=0;entryY=0.5;entryDx=0;entryDy=0;curved=1;sketch=1;curveFitting=1;jiggle=2;" edge="1" parent="1" source="yrAa5iLb8GdBAWONsoct-1" target="yrAa5iLb8GdBAWONsoct-3">
          <mxGeometry relative="1" as="geometry" />
        </mxCell>
        <mxCell id="yrAa5iLb8GdBAWONsoct-1" value="&lt;font style=&quot;font-size: 24px;&quot;&gt;Zset&lt;/font&gt;" style="rounded=0;whiteSpace=wrap;html=1;sketch=1;curveFitting=1;jiggle=2;fillColor=#d5e8d4;strokeColor=#82b366;" vertex="1" parent="1">
          <mxGeometry x="160" y="250" width="120" height="60" as="geometry" />
        </mxCell>
        <mxCell id="yrAa5iLb8GdBAWONsoct-2" value="&lt;font style=&quot;font-size: 24px;&quot;&gt;hash&lt;/font&gt;" style="rounded=0;whiteSpace=wrap;html=1;sketch=1;curveFitting=1;jiggle=2;fillColor=#dae8fc;strokeColor=#6c8ebf;" vertex="1" parent="1">
          <mxGeometry x="390" y="200" width="120" height="60" as="geometry" />
        </mxCell>
        <mxCell id="yrAa5iLb8GdBAWONsoct-3" value="&lt;font style=&quot;font-size: 24px;&quot;&gt;skiplist&lt;/font&gt;" style="rounded=0;whiteSpace=wrap;html=1;sketch=1;curveFitting=1;jiggle=2;fillColor=#ffe6cc;strokeColor=#d79b00;" vertex="1" parent="1">
          <mxGeometry x="390" y="300" width="120" height="60" as="geometry" />
        </mxCell>
      </root>
    </mxGraphModel>
  </diagram>
  <diagram id="BRSWFTUNsq3Wy9p_-tbW" name="第 2 页">
    <mxGraphModel dx="1723" dy="947" grid="0" gridSize="10" guides="1" tooltips="1" connect="1" arrows="1" fold="1" page="1" pageScale="1" pageWidth="2339" pageHeight="3300" math="0" shadow="0">
      <root>
        <mxCell id="0" />
        <mxCell id="1" parent="0" />
        <mxCell id="2xFq4pzcUKW9kHg5CBGh-33" value="&lt;font style=&quot;font-size: 20px;&quot;&gt;kv&lt;br&gt;head&lt;/font&gt;" style="rounded=0;whiteSpace=wrap;html=1;" vertex="1" parent="1">
          <mxGeometry x="813" y="893" width="60" height="332" as="geometry" />
        </mxCell>
        <mxCell id="2xFq4pzcUKW9kHg5CBGh-34" value="" style="shape=table;startSize=0;container=1;collapsible=0;childLayout=tableLayout;" vertex="1" parent="1">
          <mxGeometry x="873" y="893" width="29" height="332" as="geometry" />
        </mxCell>
        <mxCell id="2xFq4pzcUKW9kHg5CBGh-35" value="" style="shape=tableRow;horizontal=0;startSize=0;swimlaneHead=0;swimlaneBody=0;strokeColor=inherit;top=0;left=0;bottom=0;right=0;collapsible=0;dropTarget=0;fillColor=none;points=[[0,0.5],[1,0.5]];portConstraint=eastwest;" vertex="1" parent="2xFq4pzcUKW9kHg5CBGh-34">
          <mxGeometry width="29" height="83" as="geometry" />
        </mxCell>
        <mxCell id="2xFq4pzcUKW9kHg5CBGh-36" value="" style="shape=partialRectangle;html=1;whiteSpace=wrap;connectable=0;strokeColor=inherit;overflow=hidden;fillColor=none;top=0;left=0;bottom=0;right=0;pointerEvents=1;" vertex="1" parent="2xFq4pzcUKW9kHg5CBGh-35">
          <mxGeometry width="29" height="83" as="geometry">
            <mxRectangle width="29" height="83" as="alternateBounds" />
          </mxGeometry>
        </mxCell>
        <mxCell id="2xFq4pzcUKW9kHg5CBGh-37" value="" style="shape=tableRow;horizontal=0;startSize=0;swimlaneHead=0;swimlaneBody=0;strokeColor=inherit;top=0;left=0;bottom=0;right=0;collapsible=0;dropTarget=0;fillColor=none;points=[[0,0.5],[1,0.5]];portConstraint=eastwest;" vertex="1" parent="2xFq4pzcUKW9kHg5CBGh-34">
          <mxGeometry y="83" width="29" height="83" as="geometry" />
        </mxCell>
        <mxCell id="2xFq4pzcUKW9kHg5CBGh-38" value="" style="shape=partialRectangle;html=1;whiteSpace=wrap;connectable=0;strokeColor=inherit;overflow=hidden;fillColor=none;top=0;left=0;bottom=0;right=0;pointerEvents=1;" vertex="1" parent="2xFq4pzcUKW9kHg5CBGh-37">
          <mxGeometry width="29" height="83" as="geometry">
            <mxRectangle width="29" height="83" as="alternateBounds" />
          </mxGeometry>
        </mxCell>
        <mxCell id="2xFq4pzcUKW9kHg5CBGh-39" value="" style="shape=tableRow;horizontal=0;startSize=0;swimlaneHead=0;swimlaneBody=0;strokeColor=inherit;top=0;left=0;bottom=0;right=0;collapsible=0;dropTarget=0;fillColor=none;points=[[0,0.5],[1,0.5]];portConstraint=eastwest;" vertex="1" parent="2xFq4pzcUKW9kHg5CBGh-34">
          <mxGeometry y="166" width="29" height="83" as="geometry" />
        </mxCell>
        <mxCell id="2xFq4pzcUKW9kHg5CBGh-40" value="" style="shape=partialRectangle;html=1;whiteSpace=wrap;connectable=0;strokeColor=inherit;overflow=hidden;fillColor=none;top=0;left=0;bottom=0;right=0;pointerEvents=1;" vertex="1" parent="2xFq4pzcUKW9kHg5CBGh-39">
          <mxGeometry width="29" height="83" as="geometry">
            <mxRectangle width="29" height="83" as="alternateBounds" />
          </mxGeometry>
        </mxCell>
        <mxCell id="2xFq4pzcUKW9kHg5CBGh-41" value="" style="shape=tableRow;horizontal=0;startSize=0;swimlaneHead=0;swimlaneBody=0;strokeColor=inherit;top=0;left=0;bottom=0;right=0;collapsible=0;dropTarget=0;fillColor=none;points=[[0,0.5],[1,0.5]];portConstraint=eastwest;" vertex="1" parent="2xFq4pzcUKW9kHg5CBGh-34">
          <mxGeometry y="249" width="29" height="83" as="geometry" />
        </mxCell>
        <mxCell id="2xFq4pzcUKW9kHg5CBGh-42" value="" style="shape=partialRectangle;html=1;whiteSpace=wrap;connectable=0;strokeColor=inherit;overflow=hidden;fillColor=none;top=0;left=0;bottom=0;right=0;pointerEvents=1;" vertex="1" parent="2xFq4pzcUKW9kHg5CBGh-41">
          <mxGeometry width="29" height="83" as="geometry">
            <mxRectangle width="29" height="83" as="alternateBounds" />
          </mxGeometry>
        </mxCell>
        <mxCell id="2xFq4pzcUKW9kHg5CBGh-43" value="&lt;font style=&quot;font-size: 20px;&quot;&gt;kv&lt;br&gt;&lt;/font&gt;" style="rounded=0;whiteSpace=wrap;html=1;" vertex="1" parent="1">
          <mxGeometry x="1066" y="844" width="60" height="332" as="geometry" />
        </mxCell>
        <mxCell id="2xFq4pzcUKW9kHg5CBGh-44" value="" style="shape=table;startSize=0;container=1;collapsible=0;childLayout=tableLayout;" vertex="1" parent="1">
          <mxGeometry x="1126" y="844" width="29" height="332" as="geometry" />
        </mxCell>
        <mxCell id="2xFq4pzcUKW9kHg5CBGh-45" value="" style="shape=tableRow;horizontal=0;startSize=0;swimlaneHead=0;swimlaneBody=0;strokeColor=inherit;top=0;left=0;bottom=0;right=0;collapsible=0;dropTarget=0;fillColor=none;points=[[0,0.5],[1,0.5]];portConstraint=eastwest;" vertex="1" parent="2xFq4pzcUKW9kHg5CBGh-44">
          <mxGeometry width="29" height="83" as="geometry" />
        </mxCell>
        <mxCell id="2xFq4pzcUKW9kHg5CBGh-46" value="" style="shape=partialRectangle;html=1;whiteSpace=wrap;connectable=0;strokeColor=inherit;overflow=hidden;fillColor=none;top=0;left=0;bottom=0;right=0;pointerEvents=1;" vertex="1" parent="2xFq4pzcUKW9kHg5CBGh-45">
          <mxGeometry width="29" height="83" as="geometry">
            <mxRectangle width="29" height="83" as="alternateBounds" />
          </mxGeometry>
        </mxCell>
        <mxCell id="2xFq4pzcUKW9kHg5CBGh-47" value="" style="shape=tableRow;horizontal=0;startSize=0;swimlaneHead=0;swimlaneBody=0;strokeColor=inherit;top=0;left=0;bottom=0;right=0;collapsible=0;dropTarget=0;fillColor=none;points=[[0,0.5],[1,0.5]];portConstraint=eastwest;" vertex="1" parent="2xFq4pzcUKW9kHg5CBGh-44">
          <mxGeometry y="83" width="29" height="83" as="geometry" />
        </mxCell>
        <mxCell id="2xFq4pzcUKW9kHg5CBGh-48" value="" style="shape=partialRectangle;html=1;whiteSpace=wrap;connectable=0;strokeColor=inherit;overflow=hidden;fillColor=none;top=0;left=0;bottom=0;right=0;pointerEvents=1;" vertex="1" parent="2xFq4pzcUKW9kHg5CBGh-47">
          <mxGeometry width="29" height="83" as="geometry">
            <mxRectangle width="29" height="83" as="alternateBounds" />
          </mxGeometry>
        </mxCell>
        <mxCell id="2xFq4pzcUKW9kHg5CBGh-49" value="" style="shape=tableRow;horizontal=0;startSize=0;swimlaneHead=0;swimlaneBody=0;strokeColor=inherit;top=0;left=0;bottom=0;right=0;collapsible=0;dropTarget=0;fillColor=none;points=[[0,0.5],[1,0.5]];portConstraint=eastwest;" vertex="1" parent="2xFq4pzcUKW9kHg5CBGh-44">
          <mxGeometry y="166" width="29" height="83" as="geometry" />
        </mxCell>
        <mxCell id="2xFq4pzcUKW9kHg5CBGh-50" value="" style="shape=partialRectangle;html=1;whiteSpace=wrap;connectable=0;strokeColor=inherit;overflow=hidden;fillColor=none;top=0;left=0;bottom=0;right=0;pointerEvents=1;" vertex="1" parent="2xFq4pzcUKW9kHg5CBGh-49">
          <mxGeometry width="29" height="83" as="geometry">
            <mxRectangle width="29" height="83" as="alternateBounds" />
          </mxGeometry>
        </mxCell>
        <mxCell id="2xFq4pzcUKW9kHg5CBGh-51" value="" style="shape=tableRow;horizontal=0;startSize=0;swimlaneHead=0;swimlaneBody=0;strokeColor=inherit;top=0;left=0;bottom=0;right=0;collapsible=0;dropTarget=0;fillColor=none;points=[[0,0.5],[1,0.5]];portConstraint=eastwest;" vertex="1" parent="2xFq4pzcUKW9kHg5CBGh-44">
          <mxGeometry y="249" width="29" height="83" as="geometry" />
        </mxCell>
        <mxCell id="2xFq4pzcUKW9kHg5CBGh-52" value="" style="shape=partialRectangle;html=1;whiteSpace=wrap;connectable=0;strokeColor=inherit;overflow=hidden;fillColor=none;top=0;left=0;bottom=0;right=0;pointerEvents=1;" vertex="1" parent="2xFq4pzcUKW9kHg5CBGh-51">
          <mxGeometry width="29" height="83" as="geometry">
            <mxRectangle width="29" height="83" as="alternateBounds" />
          </mxGeometry>
        </mxCell>
        <mxCell id="2xFq4pzcUKW9kHg5CBGh-53" value="" style="shape=table;startSize=0;container=1;collapsible=0;childLayout=tableLayout;sketch=1;curveFitting=1;jiggle=2;fillColor=#f8cecc;strokeColor=#b85450;" vertex="1" parent="1">
          <mxGeometry x="98" y="174" width="29" height="250" as="geometry" />
        </mxCell>
        <mxCell id="2xFq4pzcUKW9kHg5CBGh-54" value="" style="shape=tableRow;horizontal=0;startSize=0;swimlaneHead=0;swimlaneBody=0;strokeColor=#b85450;top=0;left=0;bottom=0;right=0;collapsible=0;dropTarget=0;fillColor=#f8cecc;points=[[0,0.5],[1,0.5]];portConstraint=eastwest;sketch=1;curveFitting=1;jiggle=2;" vertex="1" parent="2xFq4pzcUKW9kHg5CBGh-53">
          <mxGeometry width="29" height="83" as="geometry" />
        </mxCell>
        <mxCell id="2xFq4pzcUKW9kHg5CBGh-55" value="" style="shape=partialRectangle;html=1;whiteSpace=wrap;connectable=0;strokeColor=#b85450;overflow=hidden;fillColor=#f8cecc;top=0;left=0;bottom=0;right=0;pointerEvents=1;sketch=1;curveFitting=1;jiggle=2;" vertex="1" parent="2xFq4pzcUKW9kHg5CBGh-54">
          <mxGeometry width="29" height="83" as="geometry">
            <mxRectangle width="29" height="83" as="alternateBounds" />
          </mxGeometry>
        </mxCell>
        <mxCell id="2xFq4pzcUKW9kHg5CBGh-56" value="" style="shape=tableRow;horizontal=0;startSize=0;swimlaneHead=0;swimlaneBody=0;strokeColor=#b85450;top=0;left=0;bottom=0;right=0;collapsible=0;dropTarget=0;fillColor=#f8cecc;points=[[0,0.5],[1,0.5]];portConstraint=eastwest;sketch=1;curveFitting=1;jiggle=2;" vertex="1" parent="2xFq4pzcUKW9kHg5CBGh-53">
          <mxGeometry y="83" width="29" height="84" as="geometry" />
        </mxCell>
        <mxCell id="2xFq4pzcUKW9kHg5CBGh-57" value="" style="shape=partialRectangle;html=1;whiteSpace=wrap;connectable=0;strokeColor=#b85450;overflow=hidden;fillColor=#f8cecc;top=0;left=0;bottom=0;right=0;pointerEvents=1;sketch=1;curveFitting=1;jiggle=2;" vertex="1" parent="2xFq4pzcUKW9kHg5CBGh-56">
          <mxGeometry width="29" height="84" as="geometry">
            <mxRectangle width="29" height="84" as="alternateBounds" />
          </mxGeometry>
        </mxCell>
        <mxCell id="2xFq4pzcUKW9kHg5CBGh-58" value="" style="shape=tableRow;horizontal=0;startSize=0;swimlaneHead=0;swimlaneBody=0;strokeColor=#b85450;top=0;left=0;bottom=0;right=0;collapsible=0;dropTarget=0;fillColor=#f8cecc;points=[[0,0.5],[1,0.5]];portConstraint=eastwest;sketch=1;curveFitting=1;jiggle=2;" vertex="1" parent="2xFq4pzcUKW9kHg5CBGh-53">
          <mxGeometry y="167" width="29" height="83" as="geometry" />
        </mxCell>
        <mxCell id="2xFq4pzcUKW9kHg5CBGh-59" value="" style="shape=partialRectangle;html=1;whiteSpace=wrap;connectable=0;strokeColor=#b85450;overflow=hidden;fillColor=#f8cecc;top=0;left=0;bottom=0;right=0;pointerEvents=1;sketch=1;curveFitting=1;jiggle=2;" vertex="1" parent="2xFq4pzcUKW9kHg5CBGh-58">
          <mxGeometry width="29" height="83" as="geometry">
            <mxRectangle width="29" height="83" as="alternateBounds" />
          </mxGeometry>
        </mxCell>
        <mxCell id="2xFq4pzcUKW9kHg5CBGh-60" value="" style="shape=table;startSize=0;container=1;collapsible=0;childLayout=tableLayout;sketch=1;curveFitting=1;jiggle=2;fillColor=#d5e8d4;strokeColor=#82b366;" vertex="1" parent="1">
          <mxGeometry x="375" y="258" width="29" height="166" as="geometry" />
        </mxCell>
        <mxCell id="2xFq4pzcUKW9kHg5CBGh-61" value="" style="shape=tableRow;horizontal=0;startSize=0;swimlaneHead=0;swimlaneBody=0;strokeColor=#82b366;top=0;left=0;bottom=0;right=0;collapsible=0;dropTarget=0;fillColor=#d5e8d4;points=[[0,0.5],[1,0.5]];portConstraint=eastwest;sketch=1;curveFitting=1;jiggle=2;" vertex="1" parent="2xFq4pzcUKW9kHg5CBGh-60">
          <mxGeometry width="29" height="84" as="geometry" />
        </mxCell>
        <mxCell id="2xFq4pzcUKW9kHg5CBGh-62" value="" style="shape=partialRectangle;html=1;whiteSpace=wrap;connectable=0;strokeColor=#82b366;overflow=hidden;fillColor=#d5e8d4;top=0;left=0;bottom=0;right=0;pointerEvents=1;sketch=1;curveFitting=1;jiggle=2;" vertex="1" parent="2xFq4pzcUKW9kHg5CBGh-61">
          <mxGeometry width="29" height="84" as="geometry">
            <mxRectangle width="29" height="84" as="alternateBounds" />
          </mxGeometry>
        </mxCell>
        <mxCell id="2xFq4pzcUKW9kHg5CBGh-63" value="" style="shape=tableRow;horizontal=0;startSize=0;swimlaneHead=0;swimlaneBody=0;strokeColor=#82b366;top=0;left=0;bottom=0;right=0;collapsible=0;dropTarget=0;fillColor=#d5e8d4;points=[[0,0.5],[1,0.5]];portConstraint=eastwest;sketch=1;curveFitting=1;jiggle=2;" vertex="1" parent="2xFq4pzcUKW9kHg5CBGh-60">
          <mxGeometry y="84" width="29" height="82" as="geometry" />
        </mxCell>
        <mxCell id="2xFq4pzcUKW9kHg5CBGh-64" value="" style="shape=partialRectangle;html=1;whiteSpace=wrap;connectable=0;strokeColor=#82b366;overflow=hidden;fillColor=#d5e8d4;top=0;left=0;bottom=0;right=0;pointerEvents=1;sketch=1;curveFitting=1;jiggle=2;" vertex="1" parent="2xFq4pzcUKW9kHg5CBGh-63">
          <mxGeometry width="29" height="82" as="geometry">
            <mxRectangle width="29" height="82" as="alternateBounds" />
          </mxGeometry>
        </mxCell>
        <mxCell id="2xFq4pzcUKW9kHg5CBGh-65" value="" style="shape=table;startSize=0;container=1;collapsible=0;childLayout=tableLayout;" vertex="1" parent="1">
          <mxGeometry x="273" y="1102" width="29" height="82" as="geometry" />
        </mxCell>
        <mxCell id="2xFq4pzcUKW9kHg5CBGh-66" value="" style="shape=tableRow;horizontal=0;startSize=0;swimlaneHead=0;swimlaneBody=0;strokeColor=inherit;top=0;left=0;bottom=0;right=0;collapsible=0;dropTarget=0;fillColor=none;points=[[0,0.5],[1,0.5]];portConstraint=eastwest;" vertex="1" parent="2xFq4pzcUKW9kHg5CBGh-65">
          <mxGeometry width="29" height="82" as="geometry" />
        </mxCell>
        <mxCell id="2xFq4pzcUKW9kHg5CBGh-67" value="" style="shape=partialRectangle;html=1;whiteSpace=wrap;connectable=0;strokeColor=inherit;overflow=hidden;fillColor=none;top=0;left=0;bottom=0;right=0;pointerEvents=1;" vertex="1" parent="2xFq4pzcUKW9kHg5CBGh-66">
          <mxGeometry width="29" height="82" as="geometry">
            <mxRectangle width="29" height="82" as="alternateBounds" />
          </mxGeometry>
        </mxCell>
        <mxCell id="2xFq4pzcUKW9kHg5CBGh-68" value="&lt;font style=&quot;font-size: 20px;&quot;&gt;kv&lt;/font&gt;" style="rounded=0;whiteSpace=wrap;html=1;sketch=1;curveFitting=1;jiggle=2;fillColor=#d5e8d4;strokeColor=#82b366;" vertex="1" parent="1">
          <mxGeometry x="315" y="258" width="60" height="166" as="geometry" />
        </mxCell>
        <mxCell id="2xFq4pzcUKW9kHg5CBGh-69" value="&lt;font style=&quot;font-size: 20px;&quot;&gt;kv&lt;/font&gt;" style="rounded=0;whiteSpace=wrap;html=1;" vertex="1" parent="1">
          <mxGeometry x="213" y="1102" width="60" height="82" as="geometry" />
        </mxCell>
        <mxCell id="2xFq4pzcUKW9kHg5CBGh-70" value="&lt;font style=&quot;font-size: 20px;&quot;&gt;kv&lt;br&gt;head&lt;br&gt;&lt;/font&gt;" style="rounded=0;whiteSpace=wrap;html=1;sketch=1;curveFitting=1;jiggle=2;fillColor=#ffe6cc;strokeColor=#d79b00;" vertex="1" parent="1">
          <mxGeometry x="38" y="174" width="60" height="249" as="geometry" />
        </mxCell>
        <mxCell id="2xFq4pzcUKW9kHg5CBGh-71" value="" style="shape=table;startSize=0;container=1;collapsible=0;childLayout=tableLayout;sketch=1;curveFitting=1;jiggle=2;fillColor=#d5e8d4;strokeColor=#82b366;" vertex="1" parent="1">
          <mxGeometry x="237" y="342" width="29" height="82" as="geometry" />
        </mxCell>
        <mxCell id="2xFq4pzcUKW9kHg5CBGh-72" value="" style="shape=tableRow;horizontal=0;startSize=0;swimlaneHead=0;swimlaneBody=0;strokeColor=#82b366;top=0;left=0;bottom=0;right=0;collapsible=0;dropTarget=0;fillColor=#d5e8d4;points=[[0,0.5],[1,0.5]];portConstraint=eastwest;sketch=1;curveFitting=1;jiggle=2;" vertex="1" parent="2xFq4pzcUKW9kHg5CBGh-71">
          <mxGeometry width="29" height="82" as="geometry" />
        </mxCell>
        <mxCell id="2xFq4pzcUKW9kHg5CBGh-73" value="" style="shape=partialRectangle;html=1;whiteSpace=wrap;connectable=0;strokeColor=#82b366;overflow=hidden;fillColor=#d5e8d4;top=0;left=0;bottom=0;right=0;pointerEvents=1;sketch=1;curveFitting=1;jiggle=2;" vertex="1" parent="2xFq4pzcUKW9kHg5CBGh-72">
          <mxGeometry width="29" height="82" as="geometry">
            <mxRectangle width="29" height="82" as="alternateBounds" />
          </mxGeometry>
        </mxCell>
        <mxCell id="2xFq4pzcUKW9kHg5CBGh-126" style="edgeStyle=orthogonalEdgeStyle;rounded=0;orthogonalLoop=1;jettySize=auto;html=1;exitX=0;exitY=0.25;exitDx=0;exitDy=0;entryX=0.969;entryY=0.26;entryDx=0;entryDy=0;entryPerimeter=0;sketch=1;curveFitting=1;jiggle=2;fillColor=#d5e8d4;strokeColor=#82b366;" edge="1" parent="1" source="2xFq4pzcUKW9kHg5CBGh-74" target="2xFq4pzcUKW9kHg5CBGh-58">
          <mxGeometry relative="1" as="geometry" />
        </mxCell>
        <mxCell id="2xFq4pzcUKW9kHg5CBGh-74" value="&lt;font style=&quot;font-size: 20px;&quot;&gt;kv&lt;/font&gt;" style="rounded=0;whiteSpace=wrap;html=1;sketch=1;curveFitting=1;jiggle=2;fillColor=#d5e8d4;strokeColor=#82b366;" vertex="1" parent="1">
          <mxGeometry x="177" y="342" width="60" height="82" as="geometry" />
        </mxCell>
        <mxCell id="2xFq4pzcUKW9kHg5CBGh-75" value="" style="shape=table;startSize=0;container=1;collapsible=0;childLayout=tableLayout;" vertex="1" parent="1">
          <mxGeometry x="642" y="941" width="29" height="250" as="geometry" />
        </mxCell>
        <mxCell id="2xFq4pzcUKW9kHg5CBGh-76" value="" style="shape=tableRow;horizontal=0;startSize=0;swimlaneHead=0;swimlaneBody=0;strokeColor=inherit;top=0;left=0;bottom=0;right=0;collapsible=0;dropTarget=0;fillColor=none;points=[[0,0.5],[1,0.5]];portConstraint=eastwest;" vertex="1" parent="2xFq4pzcUKW9kHg5CBGh-75">
          <mxGeometry width="29" height="83" as="geometry" />
        </mxCell>
        <mxCell id="2xFq4pzcUKW9kHg5CBGh-77" value="" style="shape=partialRectangle;html=1;whiteSpace=wrap;connectable=0;strokeColor=inherit;overflow=hidden;fillColor=none;top=0;left=0;bottom=0;right=0;pointerEvents=1;" vertex="1" parent="2xFq4pzcUKW9kHg5CBGh-76">
          <mxGeometry width="29" height="83" as="geometry">
            <mxRectangle width="29" height="83" as="alternateBounds" />
          </mxGeometry>
        </mxCell>
        <mxCell id="2xFq4pzcUKW9kHg5CBGh-78" value="" style="shape=tableRow;horizontal=0;startSize=0;swimlaneHead=0;swimlaneBody=0;strokeColor=inherit;top=0;left=0;bottom=0;right=0;collapsible=0;dropTarget=0;fillColor=none;points=[[0,0.5],[1,0.5]];portConstraint=eastwest;" vertex="1" parent="2xFq4pzcUKW9kHg5CBGh-75">
          <mxGeometry y="83" width="29" height="84" as="geometry" />
        </mxCell>
        <mxCell id="2xFq4pzcUKW9kHg5CBGh-79" value="" style="shape=partialRectangle;html=1;whiteSpace=wrap;connectable=0;strokeColor=inherit;overflow=hidden;fillColor=none;top=0;left=0;bottom=0;right=0;pointerEvents=1;" vertex="1" parent="2xFq4pzcUKW9kHg5CBGh-78">
          <mxGeometry width="29" height="84" as="geometry">
            <mxRectangle width="29" height="84" as="alternateBounds" />
          </mxGeometry>
        </mxCell>
        <mxCell id="2xFq4pzcUKW9kHg5CBGh-80" value="" style="shape=tableRow;horizontal=0;startSize=0;swimlaneHead=0;swimlaneBody=0;strokeColor=inherit;top=0;left=0;bottom=0;right=0;collapsible=0;dropTarget=0;fillColor=none;points=[[0,0.5],[1,0.5]];portConstraint=eastwest;" vertex="1" parent="2xFq4pzcUKW9kHg5CBGh-75">
          <mxGeometry y="167" width="29" height="83" as="geometry" />
        </mxCell>
        <mxCell id="2xFq4pzcUKW9kHg5CBGh-81" value="" style="shape=partialRectangle;html=1;whiteSpace=wrap;connectable=0;strokeColor=inherit;overflow=hidden;fillColor=none;top=0;left=0;bottom=0;right=0;pointerEvents=1;" vertex="1" parent="2xFq4pzcUKW9kHg5CBGh-80">
          <mxGeometry width="29" height="83" as="geometry">
            <mxRectangle width="29" height="83" as="alternateBounds" />
          </mxGeometry>
        </mxCell>
        <mxCell id="2xFq4pzcUKW9kHg5CBGh-82" value="&lt;font style=&quot;font-size: 20px;&quot;&gt;kv&lt;br&gt;&lt;/font&gt;" style="rounded=0;whiteSpace=wrap;html=1;" vertex="1" parent="1">
          <mxGeometry x="582" y="941" width="60" height="249" as="geometry" />
        </mxCell>
        <mxCell id="2xFq4pzcUKW9kHg5CBGh-83" value="" style="shape=table;startSize=0;container=1;collapsible=0;childLayout=tableLayout;sketch=1;curveFitting=1;jiggle=2;fillColor=#d5e8d4;strokeColor=#82b366;" vertex="1" parent="1">
          <mxGeometry x="683" y="173" width="29" height="250" as="geometry" />
        </mxCell>
        <mxCell id="2xFq4pzcUKW9kHg5CBGh-84" value="" style="shape=tableRow;horizontal=0;startSize=0;swimlaneHead=0;swimlaneBody=0;strokeColor=#82b366;top=0;left=0;bottom=0;right=0;collapsible=0;dropTarget=0;fillColor=#d5e8d4;points=[[0,0.5],[1,0.5]];portConstraint=eastwest;sketch=1;curveFitting=1;jiggle=2;" vertex="1" parent="2xFq4pzcUKW9kHg5CBGh-83">
          <mxGeometry width="29" height="83" as="geometry" />
        </mxCell>
        <mxCell id="2xFq4pzcUKW9kHg5CBGh-85" value="" style="shape=partialRectangle;html=1;whiteSpace=wrap;connectable=0;strokeColor=#82b366;overflow=hidden;fillColor=#d5e8d4;top=0;left=0;bottom=0;right=0;pointerEvents=1;sketch=1;curveFitting=1;jiggle=2;" vertex="1" parent="2xFq4pzcUKW9kHg5CBGh-84">
          <mxGeometry width="29" height="83" as="geometry">
            <mxRectangle width="29" height="83" as="alternateBounds" />
          </mxGeometry>
        </mxCell>
        <mxCell id="2xFq4pzcUKW9kHg5CBGh-86" value="" style="shape=tableRow;horizontal=0;startSize=0;swimlaneHead=0;swimlaneBody=0;strokeColor=#82b366;top=0;left=0;bottom=0;right=0;collapsible=0;dropTarget=0;fillColor=#d5e8d4;points=[[0,0.5],[1,0.5]];portConstraint=eastwest;sketch=1;curveFitting=1;jiggle=2;" vertex="1" parent="2xFq4pzcUKW9kHg5CBGh-83">
          <mxGeometry y="83" width="29" height="84" as="geometry" />
        </mxCell>
        <mxCell id="2xFq4pzcUKW9kHg5CBGh-87" value="" style="shape=partialRectangle;html=1;whiteSpace=wrap;connectable=0;strokeColor=#82b366;overflow=hidden;fillColor=#d5e8d4;top=0;left=0;bottom=0;right=0;pointerEvents=1;sketch=1;curveFitting=1;jiggle=2;" vertex="1" parent="2xFq4pzcUKW9kHg5CBGh-86">
          <mxGeometry width="29" height="84" as="geometry">
            <mxRectangle width="29" height="84" as="alternateBounds" />
          </mxGeometry>
        </mxCell>
        <mxCell id="2xFq4pzcUKW9kHg5CBGh-88" value="" style="shape=tableRow;horizontal=0;startSize=0;swimlaneHead=0;swimlaneBody=0;strokeColor=#82b366;top=0;left=0;bottom=0;right=0;collapsible=0;dropTarget=0;fillColor=#d5e8d4;points=[[0,0.5],[1,0.5]];portConstraint=eastwest;sketch=1;curveFitting=1;jiggle=2;" vertex="1" parent="2xFq4pzcUKW9kHg5CBGh-83">
          <mxGeometry y="167" width="29" height="83" as="geometry" />
        </mxCell>
        <mxCell id="2xFq4pzcUKW9kHg5CBGh-89" value="" style="shape=partialRectangle;html=1;whiteSpace=wrap;connectable=0;strokeColor=#82b366;overflow=hidden;fillColor=#d5e8d4;top=0;left=0;bottom=0;right=0;pointerEvents=1;sketch=1;curveFitting=1;jiggle=2;" vertex="1" parent="2xFq4pzcUKW9kHg5CBGh-88">
          <mxGeometry width="29" height="83" as="geometry">
            <mxRectangle width="29" height="83" as="alternateBounds" />
          </mxGeometry>
        </mxCell>
        <mxCell id="2xFq4pzcUKW9kHg5CBGh-90" value="&lt;font style=&quot;font-size: 20px;&quot;&gt;kv&lt;br&gt;&lt;/font&gt;" style="rounded=0;whiteSpace=wrap;html=1;sketch=1;curveFitting=1;jiggle=2;fillColor=#d5e8d4;strokeColor=#82b366;" vertex="1" parent="1">
          <mxGeometry x="623" y="173" width="60" height="249" as="geometry" />
        </mxCell>
        <mxCell id="2xFq4pzcUKW9kHg5CBGh-91" value="" style="shape=table;startSize=0;container=1;collapsible=0;childLayout=tableLayout;sketch=1;curveFitting=1;jiggle=2;fillColor=#d5e8d4;strokeColor=#82b366;" vertex="1" parent="1">
          <mxGeometry x="529" y="342" width="29" height="82" as="geometry" />
        </mxCell>
        <mxCell id="2xFq4pzcUKW9kHg5CBGh-92" value="" style="shape=tableRow;horizontal=0;startSize=0;swimlaneHead=0;swimlaneBody=0;strokeColor=#82b366;top=0;left=0;bottom=0;right=0;collapsible=0;dropTarget=0;fillColor=#d5e8d4;points=[[0,0.5],[1,0.5]];portConstraint=eastwest;sketch=1;curveFitting=1;jiggle=2;" vertex="1" parent="2xFq4pzcUKW9kHg5CBGh-91">
          <mxGeometry width="29" height="82" as="geometry" />
        </mxCell>
        <mxCell id="2xFq4pzcUKW9kHg5CBGh-93" value="" style="shape=partialRectangle;html=1;whiteSpace=wrap;connectable=0;strokeColor=#82b366;overflow=hidden;fillColor=#d5e8d4;top=0;left=0;bottom=0;right=0;pointerEvents=1;sketch=1;curveFitting=1;jiggle=2;" vertex="1" parent="2xFq4pzcUKW9kHg5CBGh-92">
          <mxGeometry width="29" height="82" as="geometry">
            <mxRectangle width="29" height="82" as="alternateBounds" />
          </mxGeometry>
        </mxCell>
        <mxCell id="2xFq4pzcUKW9kHg5CBGh-127" style="edgeStyle=orthogonalEdgeStyle;rounded=0;orthogonalLoop=1;jettySize=auto;html=1;exitX=0;exitY=0.75;exitDx=0;exitDy=0;entryX=1.046;entryY=0.758;entryDx=0;entryDy=0;entryPerimeter=0;sketch=1;curveFitting=1;jiggle=2;fillColor=#d5e8d4;strokeColor=#82b366;" edge="1" parent="1" source="2xFq4pzcUKW9kHg5CBGh-94" target="2xFq4pzcUKW9kHg5CBGh-63">
          <mxGeometry relative="1" as="geometry" />
        </mxCell>
        <mxCell id="2xFq4pzcUKW9kHg5CBGh-94" value="&lt;font style=&quot;font-size: 20px;&quot;&gt;kv&lt;/font&gt;" style="rounded=0;whiteSpace=wrap;html=1;sketch=1;curveFitting=1;jiggle=2;fillColor=#d5e8d4;strokeColor=#82b366;" vertex="1" parent="1">
          <mxGeometry x="469" y="342" width="60" height="82" as="geometry" />
        </mxCell>
        <mxCell id="2xFq4pzcUKW9kHg5CBGh-95" value="" style="shape=table;startSize=0;container=1;collapsible=0;childLayout=tableLayout;sketch=1;curveFitting=1;jiggle=2;fillColor=#d5e8d4;strokeColor=#82b366;" vertex="1" parent="1">
          <mxGeometry x="833" y="340" width="29" height="82" as="geometry" />
        </mxCell>
        <mxCell id="2xFq4pzcUKW9kHg5CBGh-96" value="" style="shape=tableRow;horizontal=0;startSize=0;swimlaneHead=0;swimlaneBody=0;strokeColor=#82b366;top=0;left=0;bottom=0;right=0;collapsible=0;dropTarget=0;fillColor=#d5e8d4;points=[[0,0.5],[1,0.5]];portConstraint=eastwest;sketch=1;curveFitting=1;jiggle=2;" vertex="1" parent="2xFq4pzcUKW9kHg5CBGh-95">
          <mxGeometry width="29" height="82" as="geometry" />
        </mxCell>
        <mxCell id="2xFq4pzcUKW9kHg5CBGh-97" value="" style="shape=partialRectangle;html=1;whiteSpace=wrap;connectable=0;strokeColor=#82b366;overflow=hidden;fillColor=#d5e8d4;top=0;left=0;bottom=0;right=0;pointerEvents=1;sketch=1;curveFitting=1;jiggle=2;" vertex="1" parent="2xFq4pzcUKW9kHg5CBGh-96">
          <mxGeometry width="29" height="82" as="geometry">
            <mxRectangle width="29" height="82" as="alternateBounds" />
          </mxGeometry>
        </mxCell>
        <mxCell id="2xFq4pzcUKW9kHg5CBGh-98" value="&lt;font style=&quot;font-size: 20px;&quot;&gt;kv&lt;/font&gt;" style="rounded=0;whiteSpace=wrap;html=1;sketch=1;curveFitting=1;jiggle=2;fillColor=#d5e8d4;strokeColor=#82b366;" vertex="1" parent="1">
          <mxGeometry x="773" y="340" width="60" height="82" as="geometry" />
        </mxCell>
        <mxCell id="2xFq4pzcUKW9kHg5CBGh-99" value="" style="shape=table;startSize=0;container=1;collapsible=0;childLayout=tableLayout;" vertex="1" parent="1">
          <mxGeometry x="404" y="1028" width="29" height="166" as="geometry" />
        </mxCell>
        <mxCell id="2xFq4pzcUKW9kHg5CBGh-100" value="" style="shape=tableRow;horizontal=0;startSize=0;swimlaneHead=0;swimlaneBody=0;strokeColor=inherit;top=0;left=0;bottom=0;right=0;collapsible=0;dropTarget=0;fillColor=none;points=[[0,0.5],[1,0.5]];portConstraint=eastwest;" vertex="1" parent="2xFq4pzcUKW9kHg5CBGh-99">
          <mxGeometry width="29" height="84" as="geometry" />
        </mxCell>
        <mxCell id="2xFq4pzcUKW9kHg5CBGh-101" value="" style="shape=partialRectangle;html=1;whiteSpace=wrap;connectable=0;strokeColor=inherit;overflow=hidden;fillColor=none;top=0;left=0;bottom=0;right=0;pointerEvents=1;" vertex="1" parent="2xFq4pzcUKW9kHg5CBGh-100">
          <mxGeometry width="29" height="84" as="geometry">
            <mxRectangle width="29" height="84" as="alternateBounds" />
          </mxGeometry>
        </mxCell>
        <mxCell id="2xFq4pzcUKW9kHg5CBGh-102" value="" style="shape=tableRow;horizontal=0;startSize=0;swimlaneHead=0;swimlaneBody=0;strokeColor=inherit;top=0;left=0;bottom=0;right=0;collapsible=0;dropTarget=0;fillColor=none;points=[[0,0.5],[1,0.5]];portConstraint=eastwest;" vertex="1" parent="2xFq4pzcUKW9kHg5CBGh-99">
          <mxGeometry y="84" width="29" height="82" as="geometry" />
        </mxCell>
        <mxCell id="2xFq4pzcUKW9kHg5CBGh-103" value="" style="shape=partialRectangle;html=1;whiteSpace=wrap;connectable=0;strokeColor=inherit;overflow=hidden;fillColor=none;top=0;left=0;bottom=0;right=0;pointerEvents=1;" vertex="1" parent="2xFq4pzcUKW9kHg5CBGh-102">
          <mxGeometry width="29" height="82" as="geometry">
            <mxRectangle width="29" height="82" as="alternateBounds" />
          </mxGeometry>
        </mxCell>
        <mxCell id="2xFq4pzcUKW9kHg5CBGh-104" value="&lt;font style=&quot;font-size: 20px;&quot;&gt;kv&lt;/font&gt;" style="rounded=0;whiteSpace=wrap;html=1;" vertex="1" parent="1">
          <mxGeometry x="344" y="1028" width="60" height="166" as="geometry" />
        </mxCell>
        <mxCell id="2xFq4pzcUKW9kHg5CBGh-105" value="" style="shape=table;startSize=0;container=1;collapsible=0;childLayout=tableLayout;sketch=1;curveFitting=1;jiggle=2;fillColor=#d5e8d4;strokeColor=#82b366;" vertex="1" parent="1">
          <mxGeometry x="978" y="257" width="26.970690046038044" height="166" as="geometry" />
        </mxCell>
        <mxCell id="2xFq4pzcUKW9kHg5CBGh-106" value="" style="shape=tableRow;horizontal=0;startSize=0;swimlaneHead=0;swimlaneBody=0;strokeColor=#82b366;top=0;left=0;bottom=0;right=0;collapsible=0;dropTarget=0;fillColor=#d5e8d4;points=[[0,0.5],[1,0.5]];portConstraint=eastwest;sketch=1;curveFitting=1;jiggle=2;" vertex="1" parent="2xFq4pzcUKW9kHg5CBGh-105">
          <mxGeometry width="26.970690046038044" height="84" as="geometry" />
        </mxCell>
        <mxCell id="2xFq4pzcUKW9kHg5CBGh-107" value="" style="shape=partialRectangle;html=1;whiteSpace=wrap;connectable=0;strokeColor=#82b366;overflow=hidden;fillColor=#d5e8d4;top=0;left=0;bottom=0;right=0;pointerEvents=1;sketch=1;curveFitting=1;jiggle=2;" vertex="1" parent="2xFq4pzcUKW9kHg5CBGh-106">
          <mxGeometry width="27" height="84" as="geometry">
            <mxRectangle width="27" height="84" as="alternateBounds" />
          </mxGeometry>
        </mxCell>
        <mxCell id="2xFq4pzcUKW9kHg5CBGh-108" value="" style="shape=tableRow;horizontal=0;startSize=0;swimlaneHead=0;swimlaneBody=0;strokeColor=#82b366;top=0;left=0;bottom=0;right=0;collapsible=0;dropTarget=0;fillColor=#d5e8d4;points=[[0,0.5],[1,0.5]];portConstraint=eastwest;sketch=1;curveFitting=1;jiggle=2;" vertex="1" parent="2xFq4pzcUKW9kHg5CBGh-105">
          <mxGeometry y="84" width="26.970690046038044" height="82" as="geometry" />
        </mxCell>
        <mxCell id="2xFq4pzcUKW9kHg5CBGh-109" value="" style="shape=partialRectangle;html=1;whiteSpace=wrap;connectable=0;strokeColor=#82b366;overflow=hidden;fillColor=#d5e8d4;top=0;left=0;bottom=0;right=0;pointerEvents=1;sketch=1;curveFitting=1;jiggle=2;" vertex="1" parent="2xFq4pzcUKW9kHg5CBGh-108">
          <mxGeometry width="27" height="82" as="geometry">
            <mxRectangle width="27" height="82" as="alternateBounds" />
          </mxGeometry>
        </mxCell>
        <mxCell id="2xFq4pzcUKW9kHg5CBGh-110" value="&lt;font style=&quot;font-size: 20px;&quot;&gt;kv&lt;/font&gt;" style="rounded=0;whiteSpace=wrap;html=1;sketch=1;curveFitting=1;jiggle=2;fillColor=#d5e8d4;strokeColor=#82b366;" vertex="1" parent="1">
          <mxGeometry x="918" y="257" width="60" height="166" as="geometry" />
        </mxCell>
        <mxCell id="2xFq4pzcUKW9kHg5CBGh-111" value="" style="shape=table;startSize=0;container=1;collapsible=0;childLayout=tableLayout;sketch=1;curveFitting=1;jiggle=2;fillColor=#d5e8d4;strokeColor=#82b366;" vertex="1" parent="1">
          <mxGeometry x="1134" y="342" width="29" height="82" as="geometry" />
        </mxCell>
        <mxCell id="2xFq4pzcUKW9kHg5CBGh-112" value="" style="shape=tableRow;horizontal=0;startSize=0;swimlaneHead=0;swimlaneBody=0;strokeColor=#82b366;top=0;left=0;bottom=0;right=0;collapsible=0;dropTarget=0;fillColor=#d5e8d4;points=[[0,0.5],[1,0.5]];portConstraint=eastwest;sketch=1;curveFitting=1;jiggle=2;" vertex="1" parent="2xFq4pzcUKW9kHg5CBGh-111">
          <mxGeometry width="29" height="82" as="geometry" />
        </mxCell>
        <mxCell id="2xFq4pzcUKW9kHg5CBGh-113" value="" style="shape=partialRectangle;html=1;whiteSpace=wrap;connectable=0;strokeColor=#82b366;overflow=hidden;fillColor=#d5e8d4;top=0;left=0;bottom=0;right=0;pointerEvents=1;sketch=1;curveFitting=1;jiggle=2;" vertex="1" parent="2xFq4pzcUKW9kHg5CBGh-112">
          <mxGeometry width="29" height="82" as="geometry">
            <mxRectangle width="29" height="82" as="alternateBounds" />
          </mxGeometry>
        </mxCell>
        <mxCell id="2xFq4pzcUKW9kHg5CBGh-114" value="&lt;font style=&quot;font-size: 20px;&quot;&gt;kv&lt;/font&gt;" style="rounded=0;whiteSpace=wrap;html=1;sketch=1;curveFitting=1;jiggle=2;fillColor=#d5e8d4;strokeColor=#82b366;" vertex="1" parent="1">
          <mxGeometry x="1074" y="342" width="60" height="82" as="geometry" />
        </mxCell>
        <mxCell id="2xFq4pzcUKW9kHg5CBGh-115" style="edgeStyle=orthogonalEdgeStyle;rounded=0;orthogonalLoop=1;jettySize=auto;html=1;exitX=1;exitY=0.5;exitDx=0;exitDy=0;entryX=0.052;entryY=0.172;entryDx=0;entryDy=0;entryPerimeter=0;sketch=1;curveFitting=1;jiggle=2;fillColor=#d5e8d4;strokeColor=#82b366;" edge="1" parent="1" source="2xFq4pzcUKW9kHg5CBGh-54" target="2xFq4pzcUKW9kHg5CBGh-90">
          <mxGeometry relative="1" as="geometry" />
        </mxCell>
        <mxCell id="2xFq4pzcUKW9kHg5CBGh-116" style="edgeStyle=orthogonalEdgeStyle;rounded=0;orthogonalLoop=1;jettySize=auto;html=1;exitX=1;exitY=0.5;exitDx=0;exitDy=0;entryX=0;entryY=0.25;entryDx=0;entryDy=0;sketch=1;curveFitting=1;jiggle=2;fillColor=#d5e8d4;strokeColor=#82b366;" edge="1" parent="1" source="2xFq4pzcUKW9kHg5CBGh-56" target="2xFq4pzcUKW9kHg5CBGh-68">
          <mxGeometry relative="1" as="geometry" />
        </mxCell>
        <mxCell id="2xFq4pzcUKW9kHg5CBGh-117" style="edgeStyle=orthogonalEdgeStyle;rounded=0;orthogonalLoop=1;jettySize=auto;html=1;exitX=1;exitY=0.5;exitDx=0;exitDy=0;entryX=0;entryY=0.5;entryDx=0;entryDy=0;sketch=1;curveFitting=1;jiggle=2;fillColor=#d5e8d4;strokeColor=#82b366;" edge="1" parent="1" source="2xFq4pzcUKW9kHg5CBGh-58" target="2xFq4pzcUKW9kHg5CBGh-74">
          <mxGeometry relative="1" as="geometry" />
        </mxCell>
        <mxCell id="2xFq4pzcUKW9kHg5CBGh-118" style="edgeStyle=orthogonalEdgeStyle;rounded=0;orthogonalLoop=1;jettySize=auto;html=1;exitX=1;exitY=0.5;exitDx=0;exitDy=0;entryX=0;entryY=0.75;entryDx=0;entryDy=0;sketch=1;curveFitting=1;jiggle=2;fillColor=#d5e8d4;strokeColor=#82b366;" edge="1" parent="1" source="2xFq4pzcUKW9kHg5CBGh-72" target="2xFq4pzcUKW9kHg5CBGh-68">
          <mxGeometry relative="1" as="geometry" />
        </mxCell>
        <mxCell id="2xFq4pzcUKW9kHg5CBGh-119" style="edgeStyle=orthogonalEdgeStyle;rounded=0;orthogonalLoop=1;jettySize=auto;html=1;exitX=1;exitY=0.5;exitDx=0;exitDy=0;sketch=1;curveFitting=1;jiggle=2;fillColor=#d5e8d4;strokeColor=#82b366;" edge="1" parent="1" source="2xFq4pzcUKW9kHg5CBGh-63" target="2xFq4pzcUKW9kHg5CBGh-94">
          <mxGeometry relative="1" as="geometry" />
        </mxCell>
        <mxCell id="2xFq4pzcUKW9kHg5CBGh-120" style="edgeStyle=orthogonalEdgeStyle;rounded=0;orthogonalLoop=1;jettySize=auto;html=1;exitX=1;exitY=0.5;exitDx=0;exitDy=0;entryX=-0.035;entryY=0.845;entryDx=0;entryDy=0;entryPerimeter=0;sketch=1;curveFitting=1;jiggle=2;fillColor=#d5e8d4;strokeColor=#82b366;" edge="1" parent="1" source="2xFq4pzcUKW9kHg5CBGh-92" target="2xFq4pzcUKW9kHg5CBGh-90">
          <mxGeometry relative="1" as="geometry" />
        </mxCell>
        <mxCell id="2xFq4pzcUKW9kHg5CBGh-121" style="edgeStyle=orthogonalEdgeStyle;rounded=0;orthogonalLoop=1;jettySize=auto;html=1;exitX=1;exitY=0.5;exitDx=0;exitDy=0;entryX=0;entryY=0.5;entryDx=0;entryDy=0;sketch=1;curveFitting=1;jiggle=2;fillColor=#d5e8d4;strokeColor=#82b366;" edge="1" parent="1" source="2xFq4pzcUKW9kHg5CBGh-88" target="2xFq4pzcUKW9kHg5CBGh-98">
          <mxGeometry relative="1" as="geometry" />
        </mxCell>
        <mxCell id="2xFq4pzcUKW9kHg5CBGh-122" style="edgeStyle=orthogonalEdgeStyle;rounded=0;orthogonalLoop=1;jettySize=auto;html=1;exitX=1;exitY=0.5;exitDx=0;exitDy=0;entryX=0;entryY=0.75;entryDx=0;entryDy=0;sketch=1;curveFitting=1;jiggle=2;fillColor=#d5e8d4;strokeColor=#82b366;" edge="1" parent="1" source="2xFq4pzcUKW9kHg5CBGh-96" target="2xFq4pzcUKW9kHg5CBGh-110">
          <mxGeometry relative="1" as="geometry" />
        </mxCell>
        <mxCell id="2xFq4pzcUKW9kHg5CBGh-123" style="edgeStyle=orthogonalEdgeStyle;rounded=0;orthogonalLoop=1;jettySize=auto;html=1;exitX=1;exitY=0.5;exitDx=0;exitDy=0;entryX=0;entryY=0.5;entryDx=0;entryDy=0;sketch=1;curveFitting=1;jiggle=2;fillColor=#d5e8d4;strokeColor=#82b366;" edge="1" parent="1" source="2xFq4pzcUKW9kHg5CBGh-108" target="2xFq4pzcUKW9kHg5CBGh-114">
          <mxGeometry relative="1" as="geometry" />
        </mxCell>
        <mxCell id="2xFq4pzcUKW9kHg5CBGh-129" value="" style="endArrow=classic;html=1;rounded=0;exitX=-0.031;exitY=0.896;exitDx=0;exitDy=0;exitPerimeter=0;sketch=1;curveFitting=1;jiggle=2;fillColor=#d5e8d4;strokeColor=#82b366;" edge="1" parent="1" source="2xFq4pzcUKW9kHg5CBGh-68">
          <mxGeometry width="50" height="50" relative="1" as="geometry">
            <mxPoint x="294" y="506" as="sourcePoint" />
            <mxPoint x="266" y="407" as="targetPoint" />
          </mxGeometry>
        </mxCell>
        <mxCell id="2xFq4pzcUKW9kHg5CBGh-131" value="" style="endArrow=classic;html=1;rounded=0;entryX=1.106;entryY=0.767;entryDx=0;entryDy=0;entryPerimeter=0;exitX=0.005;exitY=0.871;exitDx=0;exitDy=0;exitPerimeter=0;sketch=1;curveFitting=1;jiggle=2;fillColor=#d5e8d4;strokeColor=#82b366;" edge="1" parent="1" source="2xFq4pzcUKW9kHg5CBGh-110" target="2xFq4pzcUKW9kHg5CBGh-96">
          <mxGeometry width="50" height="50" relative="1" as="geometry">
            <mxPoint x="730" y="456" as="sourcePoint" />
            <mxPoint x="780" y="406" as="targetPoint" />
          </mxGeometry>
        </mxCell>
        <mxCell id="2xFq4pzcUKW9kHg5CBGh-132" value="" style="endArrow=classic;html=1;rounded=0;entryX=1.065;entryY=0.837;entryDx=0;entryDy=0;entryPerimeter=0;sketch=1;curveFitting=1;jiggle=2;fillColor=#d5e8d4;strokeColor=#82b366;" edge="1" parent="1" target="2xFq4pzcUKW9kHg5CBGh-92">
          <mxGeometry width="50" height="50" relative="1" as="geometry">
            <mxPoint x="622" y="411" as="sourcePoint" />
            <mxPoint x="624" y="433" as="targetPoint" />
          </mxGeometry>
        </mxCell>
        <mxCell id="2xFq4pzcUKW9kHg5CBGh-133" value="" style="endArrow=classic;html=1;rounded=0;exitX=0;exitY=0.75;exitDx=0;exitDy=0;sketch=1;curveFitting=1;jiggle=2;fillColor=#d5e8d4;strokeColor=#82b366;" edge="1" parent="1" source="2xFq4pzcUKW9kHg5CBGh-98">
          <mxGeometry width="50" height="50" relative="1" as="geometry">
            <mxPoint x="726" y="452" as="sourcePoint" />
            <mxPoint x="712" y="402" as="targetPoint" />
          </mxGeometry>
        </mxCell>
        <mxCell id="2xFq4pzcUKW9kHg5CBGh-134" value="" style="endArrow=classic;html=1;rounded=0;exitX=0;exitY=0.75;exitDx=0;exitDy=0;sketch=1;curveFitting=1;jiggle=2;fillColor=#d5e8d4;strokeColor=#82b366;" edge="1" parent="1" source="2xFq4pzcUKW9kHg5CBGh-114">
          <mxGeometry width="50" height="50" relative="1" as="geometry">
            <mxPoint x="1035" y="456" as="sourcePoint" />
            <mxPoint x="1007" y="404" as="targetPoint" />
          </mxGeometry>
        </mxCell>
        <mxCell id="2xFq4pzcUKW9kHg5CBGh-135" style="edgeStyle=orthogonalEdgeStyle;rounded=0;orthogonalLoop=1;jettySize=auto;html=1;exitX=1;exitY=0.5;exitDx=0;exitDy=0;entryX=0;entryY=0.25;entryDx=0;entryDy=0;sketch=1;curveFitting=1;jiggle=2;fillColor=#d5e8d4;strokeColor=#82b366;" edge="1" parent="1" source="2xFq4pzcUKW9kHg5CBGh-86" target="2xFq4pzcUKW9kHg5CBGh-110">
          <mxGeometry relative="1" as="geometry" />
        </mxCell>
      </root>
    </mxGraphModel>
  </diagram>
</mxfile>
